<svg width="82" height="24" viewBox="0 0 82 24" fill="none" xmlns="http://www.w3.org/2000/svg">
<path d="M73.9757 24C68.8262 23.9845 65.7334 20.4278 65.7489 15.3093C65.7334 10.1753 68.888 6.64948 73.9757 6.64948C78.3056 6.64948 81.2437 9.1701 81.4293 13.0206H77.1303C76.852 11.366 75.7695 10.2216 74.0375 10.2062C71.8417 10.2216 70.388 12.0619 70.388 15.2474C70.388 18.4948 71.8107 20.3505 74.0375 20.3505C75.6458 20.3505 76.8365 19.3454 77.1303 17.567H81.4293C81.2283 21.3711 78.4293 23.9845 73.9757 24Z" fill="#C7E3FF"/>
<path d="M58.3269 23.6598V6.86598H62.9043V23.6598H58.3269ZM58.1104 2.35052C58.1104 1.05155 59.2393 0.0154639 60.6156 0C61.9764 0.0154639 63.1053 1.05155 63.0898 2.35052C63.1053 3.61856 61.9764 4.6701 60.6156 4.6701C59.2393 4.6701 58.1104 3.61856 58.1104 2.35052Z" fill="#C7E3FF"/>
<path d="M44.0081 13.9485V23.6598H39.4308V6.86598H43.7916V9.80412H43.9772C44.7349 7.87113 46.5287 6.64948 49.0184 6.64948C52.5287 6.64948 54.8174 9.04639 54.8019 12.9588V23.6598H50.2555V13.7629C50.2401 11.6907 49.1267 10.4536 47.2246 10.4536C45.3225 10.4536 44.0081 11.7371 44.0081 13.9485Z" fill="#C7E3FF"/>
<path d="M31.3284 23.6598V6.86598H35.9057V23.6598H31.3284ZM31.1119 2.35052C31.1119 1.05155 32.2408 0.0154639 33.6171 0C34.9779 0.0154639 36.1068 1.05155 36.0913 2.35052C36.1068 3.61856 34.9779 4.6701 33.6171 4.6701C32.2408 4.6701 31.1119 3.61856 31.1119 2.35052Z" fill="#C7E3FF"/>
<path d="M27.8034 1.26804V23.6598H23.226V1.26804H27.8034Z" fill="#C7E3FF"/>
<path d="M15.4021 9.06186C15.0309 6.58763 13.1289 5.08763 10.5155 5.07216C7.03608 5.08763 4.73196 7.74742 4.73196 12.4639C4.73196 17.2887 7.06701 19.8402 10.4845 19.8557C13.0361 19.8402 14.9536 18.4485 15.4021 16.0206L20.1031 16.0515C19.5928 20.1959 16.1134 23.9691 10.4227 23.9691C4.43814 23.9691 0 19.7474 0 12.4639C0 5.14948 4.51546 0.958763 10.4227 0.958763C15.5876 0.958763 19.4845 3.91237 20.1031 9.06186H15.4021Z" fill="#C7E3FF"/>
</svg>
